<svg width="512" height="512" viewBox="0 0 512 512" fill="none" xmlns="http://www.w3.org/2000/svg">
    <rect width="512" height="512" fill="#FFFFFF"/>

    <defs>
        <linearGradient id="braceGradient" x1="0%" y1="0%" x2="100%" y2="100%">
            <stop offset="0%" stop-color="#7C3AED" />
            <stop offset="100%" stop-color="#0891B2" />
        </linearGradient>

        <radialGradient id="starGradient" cx="50%" cy="50%" r="50%" fx="50%" fy="50%">
            <stop offset="0%" stop-color="#FCD34D" />
            <stop offset="40%" stop-color="#F59E0B" />
            <stop offset="100%" stop-color="#D97706" />
        </radialGradient>

        <filter id="glow" x="-50%" y="-50%" width="200%" height="200%">
            <feGaussianBlur stdDeviation="10" result="blur" />
            <feMerge>
                <feMergeNode in="blur" />
                <feMergeNode in="SourceGraphic" />
            </feMerge>
        </filter>
    </defs>

    <path d="M 170 120 C 130 120, 120 160, 120 200 C 120 230, 100 256, 70 256 C 100 256, 120 282, 120 312 C 120 352, 130 392, 170 392"
          stroke="url(#braceGradient)" stroke-width="30" stroke-linecap="round" fill="none" filter="url(#glow)" />

    <path d="M 342 120 C 382 120, 392 160, 392 200 C 392 230, 412 256, 442 256 C 412 256, 392 282, 392 312 C 392 352, 382 392, 342 392"
          stroke="url(#braceGradient)" stroke-width="30" stroke-linecap="round" fill="none" filter="url(#glow)" />

    <path d="M 256 150 C 266 220, 280 240, 360 256 C 280 272, 266 292, 256 362 C 246 292, 232 272, 152 256 C 232 240, 246 220, 256 150 Z"
          fill="url(#starGradient)" filter="url(#glow)" />
</svg>